<svg width="441" height="300" viewBox="0 0 441 300" fill="none" xmlns="http://www.w3.org/2000/svg">
<g clip-path="url(#clip0_2655_163302)">
<path d="M46.8343 208.459C52.023 214.266 51.5493 223.169 45.7514 228.389C39.9535 233.586 31.0424 233.089 25.8536 227.304C20.6648 221.497 21.1386 212.594 26.9365 207.374C32.7344 202.154 41.6455 202.651 46.8343 208.459Z" fill="#F7CC7F"/>
<path d="M32.2153 224.57C34.9902 227.666 39.7503 227.937 42.841 225.157C45.9317 222.378 46.2024 217.61 43.4276 214.515L32.2153 224.57Z" fill="#EFEFEF"/>
<path d="M31.4936 173.118L27.8163 171.016C26.8011 172.643 25.5603 174.09 24.3646 175.197C23.372 176.123 21.8154 176.101 20.8453 175.152L20.7325 175.039C19.6496 173.999 19.6722 172.259 20.8002 171.265C21.9507 170.248 23.0562 168.983 23.9134 167.469C25.1768 165.254 25.1768 163.266 23.6202 162.385C22.1538 161.549 20.5069 162.272 17.9125 164.577C14.1676 167.943 10.6257 169.661 6.85819 167.537C3.45166 165.593 2.14319 161.684 3.67726 157.052L0 154.973L2.14319 151.177L5.54972 153.12C6.407 151.742 7.26427 150.702 8.05387 149.866C9.0465 148.849 10.6482 148.849 11.6634 149.821C12.7012 150.838 12.7238 152.51 11.6634 153.527C10.8738 154.295 10.0166 155.289 9.24954 156.668C7.82827 159.199 8.43738 160.622 9.52026 161.232C10.8062 161.955 12.3854 161.051 15.4986 158.475C19.7399 154.792 22.9208 154.137 26.4176 156.103C29.8692 158.069 31.4259 162.181 29.6662 167.085L33.6142 169.322L31.4936 173.118Z" fill="#FAE0B2"/>
<path d="M393.444 17.4519L391.007 23.5303L380.81 20.6832L376.163 29.1342L368.177 28.2756L367.726 32.3203L378.396 33.4953L382.818 25.4736L393.421 28.4338L397.098 19.2822L393.444 17.4519Z" fill="#466EB6"/>
<path d="M375.802 232.885L377.945 227.575C375.599 226.491 373.433 225.09 371.741 223.689C370.343 222.514 370.094 220.435 371.177 218.943L371.313 218.763C372.508 217.136 374.855 216.842 376.366 218.175C377.923 219.531 379.818 220.774 382.006 221.655C385.187 222.943 387.872 222.581 388.751 220.344C389.609 218.22 388.368 216.164 384.781 213.091C379.615 208.662 376.659 204.233 378.848 198.81C380.833 193.884 385.841 191.421 392.293 192.664L394.437 187.354L399.919 189.568L397.933 194.494C399.919 195.398 401.475 196.347 402.739 197.296C404.25 198.449 404.566 200.595 403.438 202.132C402.265 203.714 400.031 204.03 398.475 202.81C397.324 201.883 395.813 200.934 393.85 200.143C390.218 198.675 388.413 199.782 387.781 201.341C387.037 203.194 388.526 205.16 392.542 208.865C398.249 213.904 399.693 218.062 397.663 223.079C395.655 228.05 390.443 230.897 383.563 229.406L381.262 235.1L375.802 232.885Z" fill="#96D9C9"/>
<path d="M77.9897 49.1094C78.5311 49.8324 78.486 50.8267 77.8995 51.5046C76.7263 52.8152 74.8088 54.3969 72.3948 55.5719C68.8755 57.2892 64.8373 57.809 61.0247 56.4984C58.6559 55.6849 56.3773 54.0128 54.6854 51.7305L52.6099 52.7474C51.9105 53.0863 51.0532 52.7926 50.7148 52.0921L50.6923 52.0469C50.3539 51.3464 50.6471 50.4877 51.3465 50.1488L53.061 49.3127C52.7227 48.7478 52.4971 48.4089 52.3391 48.0925C52.0684 47.5502 51.8203 46.8949 51.5947 46.1492L49.835 47.0079C49.1356 47.3468 48.2784 47.0531 47.94 46.3526C47.6016 45.6521 47.8948 44.7935 48.5942 44.4545L50.7374 43.4151C50.1283 40.6809 50.2411 37.9016 51.0532 35.529C52.4519 31.4842 55.4975 28.3885 59.1973 26.6034C61.3405 25.564 63.1453 25.1346 64.6343 24.9765C65.672 24.8635 66.597 25.5866 66.7323 26.626V26.6486C66.8902 27.7106 66.1458 28.6823 65.0629 28.8178C63.8447 28.976 62.446 29.3602 60.8442 30.151C58.498 31.3034 56.5127 33.1789 55.5201 35.9131C54.9786 37.4948 54.8207 39.3703 55.3622 41.1555L67.364 35.303C68.0634 34.964 68.9206 35.2578 69.259 35.9583C69.5974 36.6588 69.3041 37.5174 68.6048 37.8564L56.0615 43.98C56.2871 44.5901 56.5353 45.2002 56.7157 45.5843C56.9413 46.0589 57.1895 46.556 57.5505 47.1661L70.1163 41.0425C70.8382 40.6809 71.7181 40.9973 72.0564 41.7204C72.4174 42.4434 72.1016 43.3247 71.3797 43.6636L59.3553 49.5387C60.4832 50.8945 61.882 51.8661 63.3032 52.3632C66.1232 53.2897 68.6274 52.9959 71.2894 51.7079C72.9137 50.9171 74.2448 49.9228 75.2148 48.9738C76.0044 48.1151 77.3129 48.2281 77.9897 49.1094Z" fill="#86B1F2"/>
<path d="M39.1865 87.1164L32.9825 87.7265L30.8619 77.8293L21.6575 77.6485L18.8601 70.4855L15.2505 71.909L18.9954 81.4673L27.7035 81.648L29.9144 91.952L39.2542 91.0029L39.1865 87.1164Z" fill="#50BFA5"/>
<path d="M335.284 14.7176L339.187 16.0056C339.187 16.0056 345.369 13.9946 345.978 12.7292C346.587 11.4638 346.767 8.41327 347.647 8.32288C348.527 8.2325 350.219 8.52625 350.625 10.6277C350.918 12.1417 348.685 16.5479 349.046 17.0225C349.272 17.3162 351.482 18.1297 353.107 18.672C354.19 19.0335 354.957 19.9826 355.115 21.135C355.227 21.9033 354.799 22.649 354.077 22.9427L352.949 23.372L353.31 24.5245C353.58 25.3831 353.107 26.3096 352.249 26.6033L351.392 26.8971L351.663 27.5976C352.024 28.5014 351.528 29.5408 350.58 29.812L349.813 30.038L349.836 30.2413C349.971 31.0774 349.429 31.8909 348.617 32.1168L347.873 32.3202L337.495 28.8855C336.525 28.5692 335.623 28.0495 334.856 27.349L331.404 25.5187C331.043 25.3153 330.863 24.886 330.998 24.4793L334.202 15.26C334.359 14.808 334.833 14.5821 335.284 14.7176Z" fill="#FAE0B2"/>
<path d="M97.5716 27.1231C97.4813 26.8746 95.4058 23.3044 92.7212 19.4404C80.223 1.4085 61.7014 -15.9681 39.9537 -15.3128L39.9312 -15.4484C49.7672 -16.533 59.3777 -13.9118 67.8377 -9.23437C81.7797 -1.70979 95.3607 12.6389 102.805 23.6659L97.5716 27.1231Z" fill="#F7CC7F"/>
<path d="M384.69 170.587L385.39 168.192C389.112 167.492 392.316 164.983 393.376 161.368C393.714 160.216 393.94 159.244 394.12 157.933L389.135 156.487L390.015 153.459L394.527 154.77C394.707 153.256 394.955 151.29 395.519 149.414C397.189 143.743 402.197 141.167 407.566 142.726C409.1 143.178 410.296 143.743 411.176 144.33C411.965 144.873 412.191 145.935 411.649 146.748C411.131 147.562 410.048 147.788 409.213 147.29C408.536 146.861 407.656 146.477 406.551 146.161C402.761 145.076 400.46 147.223 399.467 150.635C398.858 152.691 398.7 154.318 398.542 155.945L405.513 157.956L404.633 160.984L398.046 159.086C397.662 160.961 397.211 162.814 396.264 164.418C395.113 166.339 393.444 167.718 391.391 168.644L391.368 168.734L404.114 172.418C405.062 172.689 405.603 173.66 405.333 174.609L405.288 174.745C405.017 175.671 404.024 176.214 403.077 175.943L384.69 170.587Z" fill="#F7CC7F"/>
<path d="M1.80462 29.1341L4.17341 25.112L2.2107 20.8865C1.9851 20.412 2.41374 19.8696 2.93262 19.9826L7.46715 20.9995L10.8737 17.836C11.2572 17.4744 11.8889 17.723 11.934 18.2427L12.3626 22.8749L16.4234 25.1572C16.8972 25.4057 16.852 26.0836 16.3557 26.3096L12.0919 28.1625L11.1895 32.7269C11.0767 33.2466 10.4225 33.4274 10.0841 33.0207L7.06107 29.5409L2.4363 30.1058C1.91742 30.1736 1.53391 29.5861 1.80462 29.1341Z" fill="#466EB6"/>
<path d="M439.691 93.579L433.984 93.1271L433.217 98.392L427.599 98.1886L426.223 103.137L422.004 103.657L422.275 105.804L427.938 105.103L429.224 100.403L435.067 100.629L435.834 95.4319L441 95.8612L439.691 93.579Z" fill="#F48C7F"/>
<path d="M11.9341 134.049L16.2431 135.698L19.6045 132.422L24.2969 134.614L26.8011 130.004L32.2154 132.241L35.058 128.309L40.6077 129.597L40.1339 131.699L35.9604 130.727L32.9825 134.907L27.7711 132.738L25.2219 137.416L20.0557 134.998L16.7619 138.207L12.7688 136.693L11.0543 139.223L9.24951 138.026L11.9341 134.049Z" fill="#F7CC7F"/>
<path d="M431.547 37.2237L435.36 36.9977C435.766 36.9751 435.992 36.4328 435.721 36.0939L433.285 32.9078L434.322 28.8404C434.435 28.4111 434.052 28.027 433.668 28.1851L430.104 29.7895L426.923 27.5072C426.584 27.2587 426.111 27.5524 426.156 28.0044L426.381 32.1847L423.381 34.8285C423.065 35.1222 423.155 35.6871 423.561 35.7775L427.261 36.7492L428.57 40.6584C428.705 41.0877 429.246 41.1329 429.449 40.7487L431.547 37.2237Z" fill="#F47458"/>
<path d="M140.773 107.905C140.773 107.905 147.609 94.7087 148.669 89.8731C149.73 85.0375 153.294 60.6561 153.091 59.0743C152.708 56.069 148.782 54.1258 149.504 52.7926C150.226 51.4594 153.948 51.0527 155.212 51.1656C156.475 51.2786 159.024 52.0243 160.13 52.9281C161.213 53.832 158.912 83.049 158.212 89.3308C157.513 95.6126 149.008 115 149.008 115L140.773 107.905Z" fill="#F7A491"/>
<path d="M161.348 52.3857C161.19 52.4761 160.626 52.6569 160.491 52.7699L159.431 53.1088C159.431 53.1088 162.138 53.041 163.74 54.7584C163.74 54.7358 162.995 53.38 161.348 52.3857Z" fill="#F47257"/>
<path d="M290.729 57.6734C291.789 56.8599 292.331 54.8263 292.556 53.5157L293.098 51.7984C292.692 51.6176 284.638 50.081 282.201 49.9003C281.931 50.6685 281.773 51.3012 281.84 51.7306C282.111 53.7416 284.074 66.8475 284.074 66.8475L291.045 67.2994C291.022 67.2994 289.849 59.5489 290.729 57.6734Z" fill="#F7A491"/>
<path d="M290.887 52.1824C290.887 52.1824 289.443 52.8377 287.841 54.7584C287.841 54.7584 284.006 52.0469 284.186 51.256C284.412 50.194 288.36 52.3632 288.36 52.3632L290.887 52.1824Z" fill="#F47458"/>
<path d="M324.884 243.777C324.884 243.777 334.269 250.556 335.735 252.567C337.856 255.481 319.853 260.927 321.816 257.515C322.267 256.724 323.576 254.103 323.621 253.832C323.914 252.454 320.102 248.703 320.102 248.703L324.884 243.777Z" fill="#F7A491"/>
<path d="M316.943 263.21L323.305 254.194C323.305 254.194 327.276 253.267 331.359 248.68C331.359 248.68 335.036 250.081 337.292 253.132C337.292 253.132 333.028 257.741 326.464 262.916C326.464 262.916 322.561 266.373 317.191 268.181C311.8 269.988 316.943 263.21 316.943 263.21Z" fill="#F7CC7F"/>
<path d="M401.453 76.6995C401.453 76.6995 399.039 80.699 398.768 80.4505C398.565 80.2697 400.009 78.1456 401.047 75.5923C401.317 74.937 401.565 74.2817 401.814 73.6942C402.423 72.1124 401.678 71.299 400.776 72.8581C400.46 73.4004 399.964 74.3269 399.693 75.0273C399.4 75.7956 398.903 76.4057 398.565 76.9932C397.888 78.1908 397.414 79.0721 397.392 79.0269C397.347 78.9591 397.053 79.0947 397.324 78.3942C397.64 77.5355 398.678 75.886 399.061 74.598C399.264 73.8749 399.783 72.3836 399.783 72.3836C399.783 72.3836 400.167 69.9884 400.031 69.9206C399.332 69.559 398.633 71.1408 398.475 72.1576C398.046 72.7677 397.55 74.3495 397.55 74.3495C397.55 74.3495 395.835 77.3322 395.407 77.1062C395.226 77.0158 396.083 75.0499 396.625 72.9937C397.121 71.0956 397.324 69.0845 396.986 68.9489C396.399 68.7004 395.61 70.7567 395.61 70.7567C395.61 70.7567 395.136 72.2254 394.955 72.6999C394.73 73.2648 393.94 74.8918 393.94 74.8918C393.94 74.8918 390.827 80.3827 390.466 80.1115C390.105 79.863 389.496 78.8235 389.564 78.4168C389.631 78.0101 390.15 77.3322 390.218 76.9254C390.285 76.5187 390.06 75.9312 389.564 75.8182C389.09 75.7052 388.007 77.5355 388.007 77.5355C388.007 77.5355 387.127 79.0269 387.105 80.2471C387.014 84.4048 387.691 84.2467 387.669 84.7664C387.646 85.3991 382.841 92.3361 382.841 92.3361C382.841 92.3361 382.818 92.3813 382.75 92.4491L388.458 96.6068C390.353 93.5111 391.842 91.0707 392.271 90.3251C392.271 90.3251 395.136 87.8846 396.873 86.2803C398.61 84.676 399.603 82.3712 400.031 81.8514C400.099 81.7836 401.407 79.9307 402.468 77.2418C403.348 74.9144 401.453 76.6995 401.453 76.6995Z" fill="#F8A492"/>
<path d="M339.233 174.18L337.744 181.524L300.452 215.486L327.14 242.534L319.944 249.9C319.944 249.9 280.532 220.909 279.111 217.113C276.922 211.261 307.378 172.508 307.378 172.508L339.233 174.18Z" fill="#B75742"/>
<path d="M366.688 264.091C366.688 264.091 376.073 270.87 377.539 272.881C379.66 275.796 361.657 281.241 363.62 277.829C364.071 277.039 365.38 274.417 365.425 274.146C365.718 272.768 361.905 269.017 361.905 269.017L366.688 264.091Z" fill="#F7A491"/>
<path d="M358.724 283.546L365.086 274.53C365.086 274.53 369.327 273.762 373.388 269.175C373.388 269.175 376.795 270.418 379.051 273.446C379.051 273.446 374.787 278.055 368.222 283.23C368.222 283.23 364.319 286.687 358.95 288.495C353.603 290.325 358.724 283.546 358.724 283.546Z" fill="#F7CC7F"/>
<path d="M337.947 177.569L338.533 225.858L368.154 263.074L361.183 270.825C361.183 270.825 324.501 240.274 320.485 231.507C318.004 226.061 308.912 174.655 308.912 174.655L337.947 177.569Z" fill="#F47458"/>
<path d="M307.875 173.773C310.898 166.927 310.559 117.78 322.358 106.255C326.509 106.956 329.464 107.363 330.164 107.543C330.773 112.605 331.45 131.179 331.878 148.217C332.149 159.56 331.878 171.446 333.254 177.728C334.134 181.614 305.1 180.032 307.875 173.773Z" fill="#FAE0B2"/>
<path d="M257.904 134.456C251.001 134.862 248.09 135.947 245.97 135.54C243.849 135.134 238.187 133.123 238.3 130.976C245.88 129.462 259.1 131.812 259.1 131.812C258.197 136.241 257.904 134.456 257.904 134.456Z" fill="#F7A491"/>
<path d="M317.327 107.815C317.327 107.815 314.259 122.886 310.695 125.462C307.13 128.061 289.037 137.167 287.932 137.1C282.472 136.783 256.303 135.721 256.303 135.721L257.115 127.315L286.601 124.92C286.601 124.92 307.942 110.91 310.83 108.696C312.838 107.43 317.327 107.815 317.327 107.815Z" fill="#466EB6"/>
<path d="M306.679 177.05C304.017 177.05 303.047 176.688 301.287 176.146C301.287 176.146 300.136 156.419 305.776 127.18C307.897 116.153 307.965 109.464 312.319 107.77C316.244 106.233 321.049 106.03 322.358 106.256C310.807 139.02 310.762 164.238 309.115 171.559C308.303 175.22 307.581 177.072 306.679 177.05Z" fill="#466EB6"/>
<path d="M323.576 101.307L322.358 106.255C322.358 106.255 322.087 110.571 324.072 110.955C326.486 111.43 330.051 107.815 330.051 107.815L332.126 93.85L323.576 101.307Z" fill="#F7A491"/>
<path d="M323.576 101.307L322.358 106.255C322.358 106.255 322.087 110.571 324.072 110.955C326.486 111.43 330.051 107.815 330.051 107.815L332.126 93.85L323.576 101.307Z" fill="#F7A491"/>
<path d="M332.126 93.918L323.576 101.307L322.673 105.013C325.945 104.222 330.592 100.606 332.126 93.918Z" fill="#F47458"/>
<path d="M323.553 81.0605C321.478 81.0605 319.628 82.4841 318.906 84.563C318.297 86.2803 317.53 88.8111 317.033 91.726C316.131 97.1039 319.177 102.007 321.839 102.391C324.501 102.776 330.817 101.013 332.216 93.4207C332.825 90.1669 333.615 85.8962 330.93 83.6365C328.832 81.8966 325.922 81.0831 323.553 81.0605Z" fill="#F7A491"/>
<path d="M331.359 99.2279C331.359 99.2279 340.722 90.8673 341.128 84.3369C341.534 77.8066 335.51 74.3042 330.367 74.1234C328.043 74.033 326.464 74.146 324.072 74.4398C318.906 75.095 315.567 77.3773 316.74 81.6028C318.32 87.2745 329.013 82.484 331.201 84.2465C333.006 85.6927 330.073 89.1952 331.833 90.5283C333.48 91.7937 332.645 91.3644 332.104 93.737C331.562 96.1774 331.359 99.2279 331.359 99.2279Z" fill="#13375B"/>
<path d="M334.969 91.6582C334.743 93.2173 333.773 94.3697 332.825 94.2341C331.878 94.0985 331.291 92.7202 331.539 91.1384C331.765 89.5793 332.735 88.4269 333.683 88.5625C334.608 88.7206 335.194 90.099 334.969 91.6582Z" fill="#F7A491"/>
<path d="M292.331 49.5387C291.496 48.07 290.232 49.5839 291.045 51.482C291.09 51.5724 291.045 51.7306 291.045 51.708C290.842 52.2051 288.879 53.7642 288.879 53.7642C288.879 53.7642 290.436 58.1253 291.315 56.9955C292.195 55.8431 292.849 52.1147 292.849 52.1147L292.331 49.5387Z" fill="#F7A491"/>
<path d="M391.007 94.2569L384.623 87.9299C384.623 87.9299 372.508 105.352 366.372 108.357C360.394 111.295 340.518 110.232 339.819 110.074C337.428 109.532 330.096 107.521 330.096 107.521C330.096 107.521 323.959 160.351 331.946 178.722C334.563 184.71 350.806 180.733 350.806 180.733C350.806 180.733 345.797 158.724 345.527 155.854C345.278 153.098 343.88 131.27 344.105 131.066C344.692 130.479 366.868 125.643 372.937 121.011C379.389 116.13 391.007 94.2569 391.007 94.2569Z" fill="#466EB6"/>
<path d="M81.4413 142.206C92.3829 153.617 101.971 143.517 101.497 143.675C101.881 143.517 104.272 143.517 105.829 143.472C112.348 143.223 118.282 138.546 120.853 132.354C130.599 131.066 136.984 122.05 134.119 114.255C138.428 108.877 137.096 100.313 133.013 94.8218C132.066 85.8284 120.335 84.2919 112.236 87.4554C108.13 89.0597 104.655 92.517 102.851 96.6973C95.0675 96.5165 88.4123 102.256 86.6752 110.232C74.6057 113.577 70.2968 130.547 81.4413 142.206Z" fill="#FF3B3B"/>
<path d="M151.693 252.793C150.565 258.962 148.602 264.385 148.354 265.017C148.218 265.334 147 266.441 146.865 266.757C147.519 274.282 152.302 278.733 156.791 281.919C155.821 278.123 153.655 273.785 153.926 272.949C154.377 271.615 156.114 265.492 159.814 257.787C156.069 257.357 154.738 255.075 151.693 252.793Z" fill="#F7A491"/>
<path d="M138.021 163.379L112.078 181.117C112.078 181.117 124.711 189.342 129.043 193.477C133.374 197.612 156.566 216.367 156.927 217.316C157.197 218.017 154.783 226.92 149.211 255.391C151.67 257.922 157.107 260.385 160.311 261.199C167.056 246.014 174.659 214.402 173.801 210.922C172.493 205.521 138.021 163.379 138.021 163.379Z" fill="#355389"/>
<path d="M72.3271 199.081C73.0942 199.827 78.1476 209.702 80.0877 214.989C82.9077 213.204 84.6222 211.103 87.7581 209.905C85.2765 206.312 80.4261 197.635 80.02 195.579C79.0725 190.675 77.9671 189.952 77.9671 189.952C77.9671 189.952 61.5886 195.511 60.4832 197.07C59.4229 198.607 69.2815 196.099 72.3271 199.081Z" fill="#F7A491"/>
<path d="M80.223 196.641C81.4863 196.641 80.1102 190.879 79.8169 189.568C79.4785 188.077 78.6212 187.625 78.4182 187.58C77.8316 187.444 59.6258 193.613 56.5577 195.828C56.3547 195.986 55.9711 196.46 55.926 196.551C54.234 199.691 69.2589 200.302 71.4021 198.923C73.3197 197.703 74.5153 196.641 80.223 196.641Z" fill="#3C8F7C"/>
<path d="M142.736 168.915C142.736 168.915 120.763 160.238 120.47 161.165C118.191 168.508 111.107 166.136 106.911 179.061C105.152 184.484 103.775 198.765 102.58 209.363C101.768 216.639 100.617 222.491 100.617 222.491C100.617 222.491 95.5186 214.944 85.9532 204.143C85.2087 203.307 77.4707 210.673 77.4707 210.673C92.7212 240.975 103.843 245.246 106.28 244.432C117.311 240.704 131.908 189.907 131.885 189.93C133.69 186.45 142.736 168.915 142.736 168.915Z" fill="#466EB6"/>
<path d="M108.829 117.599C108.829 117.599 82.5917 117.576 76.9743 117.237C71.8984 116.944 51.7299 117.463 50.9403 117.373C50.1507 117.283 44.9394 108.447 44.0821 109.396C43.2248 110.345 46.9923 113.78 45.8192 114.661C44.6461 115.543 32.1479 113.554 32.3058 114.481C32.6217 116.22 39.9085 115.995 39.9085 116.831C39.9085 117.667 32.2607 116.356 31.7418 117.757C31.223 119.158 39.0964 118.322 39.3896 118.955C39.7055 119.565 32.1028 120.717 32.8698 122.005C33.2985 122.706 39.6152 120.83 39.5701 121.779C39.5475 122.728 34.9228 124.92 35.4868 125.666C36.0508 126.434 39.0964 123.316 41.781 123.293C44.4656 123.248 46.3606 121.847 50.647 123.022C52.7451 123.609 68.8528 125.575 82.4338 126.728C96.3758 127.925 107.791 128.309 107.791 128.309L108.829 117.599Z" fill="#F7A491"/>
<path d="M147.722 140.964C148.06 136.738 147.248 128.716 147.045 127.315C148.309 122.932 151.038 113.577 152.008 111.746C152.008 111.746 147.451 102.957 142.759 103.024C142.759 103.024 137.976 113.803 134.299 115.746C134.254 115.723 132.99 116.311 132.449 116.311C128.885 116.288 116.432 115.904 114.108 115.859L115.416 133.552C120.334 146.59 119.432 158.137 118.575 162.159C118.101 164.396 139.736 171.107 143.052 168.96C143.165 168.847 147.023 149.482 147.722 140.964Z" fill="#50BFA5"/>
<path d="M120.425 116.492C118.124 115.384 101.497 115.949 101.497 115.949C101.497 115.949 99.1734 127.541 101.046 130.343C101.046 130.343 115.913 132.558 115.484 133.778L120.425 116.492Z" fill="#50BFA5"/>
<path d="M123.335 108.38C123.335 108.38 125.072 114.481 125.388 117.102C125.704 119.746 129.697 127.925 135.156 126.773C140.616 125.598 134.931 117.938 133.848 115.52C132.788 113.102 129.9 103.363 129.9 103.363L123.335 108.38Z" fill="#F7A491"/>
<path d="M131.096 107.363C130.419 105.148 129.877 103.363 129.877 103.363L123.312 108.38C123.312 108.38 123.628 109.509 124.012 110.978C127.486 111.453 129.877 109.803 131.096 107.363Z" fill="#F47257"/>
<path d="M118.575 90.1444C118.575 90.1444 115.709 91.7939 114.717 95.2738C113.724 98.7536 115.033 107.702 122.523 109.735C129.99 111.792 133.126 104.651 131.501 99.1377C129.877 93.6016 126.448 86.642 118.575 90.1444Z" fill="#F7A491"/>
<path d="M132.404 96.9684C132.291 98.4597 131.479 99.6121 130.599 99.5443C129.742 99.4765 129.133 98.2111 129.245 96.7198C129.358 95.2284 130.17 94.076 131.05 94.1438C131.907 94.2116 132.517 95.477 132.404 96.9684Z" fill="#F7A491"/>
<path d="M148.286 265.221C147.812 264.046 143.075 267.797 141.947 268.565C140.683 269.424 140.593 270.395 140.616 270.621C140.706 271.209 152.775 286.1 156.317 288.156C156.656 288.359 157.355 288.359 157.558 288.269C159.521 287.501 156.317 275.321 153.745 272.903C152.098 271.344 150.406 270.531 148.286 265.221Z" fill="#3C8F7C"/>
<path d="M119.432 89.6698C119.432 89.6698 118.236 99.68 115.033 101.533C111.829 103.386 113.251 107.792 113.251 107.792C113.251 107.792 110.182 97.5559 112.687 94.2117C115.191 90.8674 119.432 89.6698 119.432 89.6698Z" fill="#FF3B3B"/>
<path d="M116.973 102.934C117.875 104.222 117.875 105.758 117.018 106.369C116.138 106.979 114.717 106.414 113.837 105.126C112.934 103.838 112.934 102.301 113.792 101.691C114.649 101.081 116.07 101.646 116.973 102.934Z" fill="#F7A491"/>
<path d="M252.4 8.48114C248.317 9.2946 232.028 31.1453 232.028 31.1453L231.464 32.6592C231.464 32.6592 260.95 29.3827 262.01 28.1173C264.876 24.7053 255.739 7.80325 252.4 8.48114ZM232.231 31.6198C237.601 24.7279 249.873 14.6725 252.513 12.5485C254.882 14.9663 258.446 22.1067 258.92 25.3154C255.536 25.9933 240.827 30.5578 232.231 31.6198Z" fill="#82C7E6"/>
<path d="M212.897 12.2095C204.889 6.9672 202.678 7.0124 200.331 8.34558C197.985 9.67877 189.367 22.0616 193.225 25.9255C197.083 29.7895 227.629 32.5462 227.629 32.5462L228.328 30.6708C228.328 30.6482 220.929 17.4519 212.897 12.2095ZM198.549 24.5471C196.767 22.762 201.211 15.3504 203.219 13.7687C203.738 13.4749 224.29 26.5808 227.155 31.0549C215.695 29.8121 200.219 26.0159 198.549 24.5471Z" fill="#82C7E6"/>
<path d="M227.9 38.3309H229.614C231.329 38.3309 232.705 36.9525 232.705 35.2352V30.1736C232.705 28.4563 231.329 27.0779 229.614 27.0779H227.9C226.185 27.0779 224.809 28.4563 224.809 30.1736V35.2352C224.809 36.9299 226.185 38.3309 227.9 38.3309Z" fill="#82C7E6"/>
<path d="M293.053 32.7496L153.294 32.3203C149.572 32.3203 146.729 35.6194 147.271 39.3026L149.437 53.5835L156.43 53.5609L160.649 125.44C160.874 129.281 164.055 132.286 167.891 132.286H279.427L284.074 53.2897L290.661 53.2671L293.053 32.7496Z" fill="#B32323"/>
<path d="M154.152 55.2781L154.174 53.5608C152.843 53.0411 151.264 53.1993 150.474 52.9959L148.602 51.6175C148.218 51.4367 147.654 51.8661 147.654 52.318C147.654 52.7247 148.196 53.5608 148.444 53.7642C148.444 53.7642 151.805 56.5209 152.978 57.3796C153.565 57.7863 155.392 58.9161 155.392 58.9161L156.453 56.905L154.152 55.2781Z" fill="#F7A491"/>
<path d="M281.863 132.332H196.248L191.668 34.241H293.391L289.127 125.508C288.947 129.326 285.743 132.332 281.863 132.332Z" fill="#FF3B3B"/>
<path d="M297.587 53.3575L187.157 53.6512L184.63 32.3655L292.804 32.7722C296.346 32.7948 299.144 35.8453 298.828 39.3929L297.587 53.3575Z" fill="#FF3B3B"/>
<path d="M187.157 53.6512L292.489 53.3574L190.496 58.9387L187.157 53.6512Z" fill="#B32323"/>
<path d="M231.532 32.5463H228.599V53.5608H231.532V32.5463Z" fill="#82C7E6"/>
<path d="M240.736 53.4479H237.082V132.467H240.736V53.4479Z" fill="#82C7E6"/>
<path d="M152.324 -8.69204C162.07 -4.89585 170.101 -2.34247 178.133 -0.21841C180.772 0.482077 185.149 2.49315 187.585 0.708041C188.848 -0.218409 189.39 -1.61938 188.645 -3.08814C187.292 -5.7997 183.073 -6.00307 180.411 -6.70356C172.29 -8.8728 163.22 -11.6974 154.219 -15.1094C152.527 -15.7421 150.564 -14.4767 150.068 -12.8272C149.504 -10.9743 150.632 -9.34733 152.324 -8.69204Z" fill="#DEF0F8"/>
<path d="M299.257 -4.08247C300.249 -5.43825 299.415 -7.20076 298.264 -8.05943C295.873 -9.84454 291.677 -8.195 289.06 -7.47192C286.037 -6.63585 283.104 -5.50604 280.239 -4.19545C278.592 -3.42718 278.141 -1.09976 278.975 0.391601C279.946 2.13152 281.863 2.35748 283.555 1.657C294.519 -2.93006 296.82 -0.738214 299.257 -4.08247Z" fill="#DEF0F8"/>
</g>
<defs>
<clipPath id="clip0_2655_163302">
<rect width="441" height="368.411" fill="white"/>
</clipPath>
</defs>
</svg>
