<svg width="188" height="40" viewBox="0 0 188 40" fill="none" xmlns="http://www.w3.org/2000/svg">
<path fill-rule="evenodd" clip-rule="evenodd" d="M131.396 1.01025C140.458 1.01025 147.287 6.06461 149.389 14.3354H139.21C137.634 11.119 134.745 9.47795 131.265 9.47795C125.552 9.47795 121.678 13.679 121.678 20.44C121.678 27.201 125.552 31.4021 131.265 31.4021C134.811 31.4021 137.634 29.761 139.21 26.5446H149.389C147.222 34.7497 140.392 39.8041 131.396 39.8041C120.168 39.8041 112.288 31.8615 112.288 20.5056C112.288 9.14974 120.233 1.01025 131.396 1.01025ZM9.25879 8.88667H23.2455V1.46923H0V39.4754H23.2455V32.058H9.25879V23.7215H21.6695V16.5667H9.25879V8.88667ZM63.3016 39.4754V1.46923H54.0428V25.0344L38.5458 1.46923H29.287V39.4098H38.5458V15.9759L54.0428 39.4754H63.3016ZM164.36 23.7872H178.741V39.4754H187.999V1.46923H178.741V16.3698H164.36V1.46923H155.101V39.4098H164.36V23.7872Z" fill="url(#paint0_linear_3611_27237)"/>
<g clip-path="url(#clip0_3611_27237)">
<path d="M74.6455 5.55087C76.6215 4.8823 78.6888 4.54802 80.8776 4.54802C87.9609 4.54802 94.1019 8.43786 97.5675 14.0599C97.5979 14.1207 97.6587 14.1814 97.6891 14.2422C97.6891 14.2726 97.7195 14.2726 97.7195 14.303C98.7227 15.9744 99.2699 17.9497 99.2699 20.0466C99.2699 26.2764 94.2235 31.3514 87.9609 31.3514C84.1001 31.3514 80.6648 29.3761 78.628 26.3676C81.82 31.6249 88.2649 35.5452 95.1051 35.5452C97.2939 35.5452 99.3915 35.1805 101.337 34.5119C105.259 30.926 107.691 25.7598 107.691 20.0466C107.691 9.1672 98.8747 0.354281 87.9913 0.354282C82.8537 0.354282 78.172 2.3296 74.6455 5.55087Z" fill="url(#paint1_linear_3611_27237)"/>
<path d="M78.6282 26.3673C77.4122 24.5743 76.6825 22.3863 76.6825 20.0463C76.6825 13.8165 81.729 8.74149 87.9915 8.74149C92.0348 8.74149 95.5917 10.8687 97.5677 14.0596C94.102 8.4376 87.9611 4.54776 80.8778 4.54776C78.689 4.54776 76.5913 4.91243 74.6457 5.55061C70.7544 9.16694 68.292 14.3027 68.292 20.0463C68.292 30.9257 77.1081 39.7386 87.9915 39.7386C93.1292 39.7386 97.8413 37.7633 101.337 34.5117C99.3613 35.1802 97.2637 35.5449 95.1053 35.5449C88.2651 35.5449 81.8202 31.6247 78.6282 26.3673Z" fill="url(#paint2_linear_3611_27237)"/>
<ellipse cx="87.7967" cy="20.0794" rx="5.72587" ry="5.63575" fill="white"/>
</g>
<defs>
<linearGradient id="paint0_linear_3611_27237" x1="183.863" y1="6.26153" x2="-18.3819" y2="41.4046" gradientUnits="userSpaceOnUse">
<stop stop-color="white"/>
<stop offset="1" stop-color="white"/>
</linearGradient>
<linearGradient id="paint1_linear_3611_27237" x1="87.7182" y1="4.56269" x2="96.6246" y2="32.5892" gradientUnits="userSpaceOnUse">
<stop stop-color="white"/>
<stop offset="1" stop-color="#CDDDE1"/>
</linearGradient>
<linearGradient id="paint2_linear_3611_27237" x1="90.4157" y1="33.7732" x2="77.965" y2="9.96425" gradientUnits="userSpaceOnUse">
<stop stop-color="white"/>
<stop offset="1" stop-color="#CDDDE1"/>
</linearGradient>
<clipPath id="clip0_3611_27237">
<rect width="39.3846" height="39.3991" fill="white" transform="translate(68.292 39.7386) rotate(-90)"/>
</clipPath>
</defs>
</svg>
